<?xml version="1.0" standalone="no"?>
<!DOCTYPE svg PUBLIC "-//W3C//DTD SVG 20010904//EN"
 "http://www.w3.org/TR/2001/REC-SVG-20010904/DTD/svg10.dtd">
<svg version="1.0" xmlns="http://www.w3.org/2000/svg"
 width="420.000000pt" height="420.000000pt" viewBox="0 0 420.000000 420.000000"
 preserveAspectRatio="xMidYMid meet">
<metadata>
Created by potrace 1.11, written by Peter Selinger 2001-2013
</metadata>
<g transform="translate(0.000000,420.000000) scale(0.100000,-0.100000)"
fill="#000000" stroke="none">
<path d="M390 3674 c-129 -27 -255 -109 -314 -204 -21 -32 -50 -98 -64 -145
-4 -11 -8 -501 -9 -1090 l-4 -1070 724 0 724 0 -1 -323 c-1 -178 0 -325 2
-327 2 -1 213 120 470 269 257 150 510 297 562 327 l94 54 601 1 600 1 80 26
c182 60 290 171 330 339 12 53 15 225 15 1111 l0 1047 -1872 -1 c-1566 0
-1884 -3 -1938 -15z"/>
</g>
</svg>
