<?xml version="1.0" encoding="UTF-8"?>
<svg width="475px" height="500px" viewBox="0 0 475 500" version="1.1" xmlns="http://www.w3.org/2000/svg" xmlns:xlink="http://www.w3.org/1999/xlink">
    <!-- Generator: Sketch 55.1 (78136) - https://sketchapp.com -->
    <title>Stars/Transparant</title>
    <desc>Created with Sketch.</desc>
    <g id="Symbols" stroke="none" stroke-width="1" fill="none" fill-rule="evenodd" opacity="0.2">
        <g id="Footer/Large" transform="translate(-965.000000, 0.000000)" fill="#FFFFFF">
            <g id="Stars/White" transform="translate(1201.500000, 250.000000) scale(-1, -1) translate(-1201.500000, -250.000000) translate(963.000000, 0.000000)">
                <path d="M475.107143,453.787879 L471.7,454.545455 L470.942857,458.333333 L469.807143,454.545455 L466.4,453.787879 L469.807143,453.030303 L470.942857,449.621212 L471.7,453.030303 L475.107143,453.787879 Z M474.728571,406.439394 L471.7,407.19697 L470.942857,410.606061 L470.185714,407.19697 L466.778571,406.439394 L470.185714,405.681818 L470.942857,402.651515 L471.7,405.681818 L474.728571,406.439394 Z M474.35,359.090909 L471.321429,359.848485 L470.942857,362.878788 L470.185714,359.848485 L467.157143,359.090909 L470.185714,358.333333 L470.942857,355.681818 L471.321429,358.333333 L474.35,359.090909 Z M473.971429,312.121212 L471.321429,312.5 L470.942857,315.151515 L470.185714,312.5 L467.535714,312.121212 L470.185714,311.363636 L470.942857,308.712121 L471.321429,311.363636 L473.971429,312.121212 Z M473.592857,264.772727 L471.321429,265.151515 L470.942857,267.424242 L470.185714,265.151515 L467.914286,264.772727 L470.185714,264.015152 L470.942857,261.742424 L471.321429,264.015152 L473.592857,264.772727 Z M473.214286,217.424242 L471.321429,217.80303 L470.942857,219.69697 L470.185714,217.80303 L468.292857,217.424242 L470.185714,217.045455 L470.942857,214.772727 L471.321429,217.045455 L473.214286,217.424242 Z M472.835714,170.075758 L471.321429,170.454545 L470.942857,171.969697 L470.185714,170.454545 L468.671429,170.075758 L470.185714,169.69697 L470.942857,167.80303 L471.321429,169.69697 L472.835714,170.075758 Z M472.457143,122.727273 L470.942857,123.106061 L470.942857,124.621212 L470.564286,123.106061 L469.05,122.727273 L470.564286,122.348485 L470.942857,121.212121 L470.942857,122.348485 L472.457143,122.727273 Z M472.078571,75.3787879 L470.942857,75.7575758 L470.942857,76.8939394 L470.564286,75.7575758 L469.428571,75.3787879 L470.564286,75.3787879 L470.942857,74.2424242 L470.942857,75.3787879 L472.078571,75.3787879 Z M471.7,28.030303 L470.942857,28.4090909 L470.942857,29.1666667 L470.564286,28.4090909 L469.807143,28.030303 L470.564286,28.030303 L470.942857,27.2727273 L470.942857,28.030303 L471.7,28.030303 Z M429.678571,453.787879 L424.757143,454.924242 L423.621429,459.848485 L422.485714,454.924242 L417.564286,453.787879 L422.485714,452.651515 L423.621429,447.727273 L424.757143,452.651515 L429.678571,453.787879 Z M428.921429,406.439394 L424.757143,407.575758 L423.621429,412.121212 L422.485714,407.575758 L417.942857,406.439394 L422.485714,405.30303 L423.621429,401.136364 L424.757143,405.30303 L428.921429,406.439394 Z M428.542857,359.090909 L424.378571,360.227273 L423.621429,364.393939 L422.485714,360.227273 L418.321429,359.090909 L422.485714,358.333333 L423.621429,354.166667 L424.378571,358.333333 L428.542857,359.090909 Z M428.164286,312.121212 L424.378571,312.878788 L423.621429,316.287879 L422.485714,312.878788 L419.078571,312.121212 L422.485714,310.984848 L423.621429,307.575758 L424.378571,310.984848 L428.164286,312.121212 Z M427.407143,264.772727 L424.378571,265.530303 L423.621429,268.560606 L422.864286,265.530303 L419.457143,264.772727 L422.864286,264.015152 L423.621429,260.606061 L424.378571,264.015152 L427.407143,264.772727 Z M427.028571,217.424242 L424.378571,218.181818 L423.621429,220.833333 L422.864286,218.181818 L420.214286,217.424242 L422.864286,216.666667 L423.621429,214.015152 L424.378571,216.666667 L427.028571,217.424242 Z M426.271429,170.075758 L424,170.833333 L423.621429,173.106061 L422.864286,170.833333 L420.592857,170.075758 L422.864286,169.318182 L423.621429,167.045455 L424,169.318182 L426.271429,170.075758 Z M425.892857,122.727273 L424,123.106061 L423.621429,125 L422.864286,123.106061 L420.971429,122.727273 L422.864286,122.348485 L423.621429,120.454545 L424,122.348485 L425.892857,122.727273 Z M425.514286,75.3787879 L424,75.7575758 L423.621429,77.2727273 L423.242857,75.7575758 L421.728571,75.3787879 L423.242857,75 L423.621429,73.4848485 L424,75 L425.514286,75.3787879 Z M424.757143,28.030303 L423.621429,28.4090909 L423.621429,29.5454545 L423.242857,28.4090909 L422.107143,28.030303 L423.242857,28.030303 L423.621429,26.8939394 L423.621429,28.030303 L424.757143,28.030303 Z M384.25,453.787879 L377.814286,455.30303 L376.3,461.742424 L374.785714,455.30303 L368.35,453.787879 L374.785714,452.272727 L376.3,445.833333 L377.814286,452.272727 L384.25,453.787879 Z M383.492857,406.439394 L377.814286,407.954545 L376.3,413.636364 L374.785714,407.954545 L369.107143,406.439394 L374.785714,404.924242 L376.3,399.242424 L377.814286,404.924242 L383.492857,406.439394 Z M382.735714,359.090909 L377.435714,360.606061 L376.3,365.530303 L374.785714,360.606061 L369.864286,359.090909 L374.785714,357.954545 L376.3,352.651515 L377.435714,357.954545 L382.735714,359.090909 Z M381.978571,312.121212 L377.435714,313.257576 L376.3,317.80303 L375.164286,313.257576 L370.621429,312.121212 L375.164286,310.606061 L376.3,306.060606 L377.435714,310.606061 L381.978571,312.121212 Z M381.221429,264.772727 L377.435714,265.530303 L376.3,269.69697 L375.164286,265.530303 L371,264.772727 L375.164286,263.636364 L376.3,259.469697 L377.435714,263.636364 L381.221429,264.772727 Z M380.842857,217.424242 L377.057143,218.181818 L376.3,221.969697 L375.542857,218.181818 L371.757143,217.424242 L375.542857,216.666667 L376.3,212.878788 L377.057143,216.666667 L380.842857,217.424242 Z M380.085714,170.075758 L377.057143,170.833333 L376.3,173.863636 L375.542857,170.833333 L372.514286,170.075758 L375.542857,169.318182 L376.3,166.287879 L377.057143,169.318182 L380.085714,170.075758 Z M379.328571,122.727273 L377.057143,123.484848 L376.3,125.757576 L375.542857,123.484848 L373.271429,122.727273 L375.542857,122.348485 L376.3,119.69697 L377.057143,122.348485 L379.328571,122.727273 Z M378.571429,75.3787879 L376.678571,76.1363636 L376.3,78.030303 L375.921429,76.1363636 L374.028571,75.3787879 L375.921429,75 L376.3,73.1060606 L376.678571,75 L378.571429,75.3787879 Z M377.814286,28.030303 L376.678571,28.4090909 L376.3,29.9242424 L375.921429,28.4090909 L374.407143,28.030303 L375.921429,28.030303 L376.3,26.5151515 L376.678571,28.030303 L377.814286,28.030303 Z M338.442857,453.787879 L330.871429,455.681818 L328.978571,463.257576 L327.085714,455.681818 L319.514286,453.787879 L327.085714,451.893939 L328.978571,444.318182 L330.871429,451.893939 L338.442857,453.787879 Z M337.685714,406.439394 L330.871429,408.333333 L328.978571,415.151515 L327.085714,408.333333 L320.271429,406.439394 L327.085714,404.924242 L328.978571,397.727273 L330.871429,404.924242 L337.685714,406.439394 Z M336.928571,359.090909 L330.492857,360.984848 L328.978571,367.045455 L327.464286,360.984848 L321.028571,359.090909 L327.464286,357.575758 L328.978571,351.515152 L330.492857,357.575758 L336.928571,359.090909 Z M336.171429,312.121212 L330.492857,313.257576 L328.978571,318.939394 L327.464286,313.257576 L321.785714,312.121212 L327.464286,310.606061 L328.978571,304.924242 L330.492857,310.606061 L336.171429,312.121212 Z M335.414286,264.772727 L330.114286,265.909091 L328.978571,270.833333 L327.842857,265.909091 L322.921429,264.772727 L327.842857,263.257576 L328.978571,258.333333 L330.114286,263.257576 L335.414286,264.772727 Z M334.278571,217.424242 L330.114286,218.560606 L328.978571,222.727273 L327.842857,218.560606 L323.678571,217.424242 L327.842857,216.287879 L328.978571,212.121212 L330.114286,216.287879 L334.278571,217.424242 Z M333.521429,170.075758 L329.735714,170.833333 L328.978571,174.621212 L328.221429,170.833333 L324.435714,170.075758 L328.221429,169.318182 L328.978571,165.530303 L329.735714,169.318182 L333.521429,170.075758 Z M332.764286,122.727273 L329.735714,123.484848 L328.978571,126.515152 L328.221429,123.484848 L325.192857,122.727273 L328.221429,121.969697 L328.978571,118.939394 L329.735714,121.969697 L332.764286,122.727273 Z M332.007143,75.3787879 L329.735714,76.1363636 L328.978571,78.4090909 L328.6,76.1363636 L325.95,75.3787879 L328.6,75 L328.978571,72.7272727 L329.735714,75 L332.007143,75.3787879 Z M331.25,28.030303 L329.357143,28.7878788 L328.978571,30.3030303 L328.6,28.7878788 L327.085714,28.030303 L328.6,27.6515152 L328.978571,26.1363636 L329.357143,27.6515152 L331.25,28.030303 Z M293.014286,453.787879 L283.928571,456.060606 L281.657143,465.151515 L279.385714,456.060606 L270.3,453.787879 L279.385714,451.515152 L281.657143,442.424242 L283.928571,451.515152 L293.014286,453.787879 Z M291.878571,406.439394 L283.928571,408.712121 L281.657143,417.045455 L279.764286,408.712121 L271.435714,406.439394 L279.764286,404.545455 L281.657143,396.212121 L283.928571,404.545455 L291.878571,406.439394 Z M291.121429,359.090909 L283.55,360.984848 L281.657143,368.560606 L279.764286,360.984848 L272.571429,359.090909 L279.764286,357.19697 L281.657143,350 L283.55,357.19697 L291.121429,359.090909 Z M289.985714,312.121212 L283.55,313.636364 L281.657143,320.454545 L280.142857,313.636364 L273.328571,312.121212 L280.142857,310.227273 L281.657143,303.409091 L283.55,310.227273 L289.985714,312.121212 Z M289.228571,264.772727 L283.171429,266.287879 L281.657143,271.969697 L280.142857,266.287879 L274.464286,264.772727 L280.142857,263.257576 L281.657143,257.19697 L283.171429,263.257576 L289.228571,264.772727 Z M288.092857,217.424242 L283.171429,218.560606 L281.657143,223.863636 L280.521429,218.560606 L275.221429,217.424242 L280.521429,215.909091 L281.657143,210.984848 L283.171429,215.909091 L288.092857,217.424242 Z M286.957143,170.075758 L282.792857,171.212121 L281.657143,175.378788 L280.521429,171.212121 L276.357143,170.075758 L280.521429,168.939394 L281.657143,164.772727 L282.792857,168.939394 L286.957143,170.075758 Z M286.2,122.727273 L282.792857,123.484848 L281.657143,127.272727 L280.9,123.484848 L277.492857,122.727273 L280.9,121.969697 L281.657143,118.181818 L282.792857,121.969697 L286.2,122.727273 Z M285.064286,75.3787879 L282.414286,76.1363636 L281.657143,78.7878788 L280.9,76.1363636 L278.25,75.3787879 L280.9,74.6212121 L281.657143,71.969697 L282.414286,74.6212121 L285.064286,75.3787879 Z M284.307143,28.030303 L282.035714,28.7878788 L281.657143,30.6818182 L281.278571,28.7878788 L279.385714,28.030303 L281.278571,27.6515152 L281.657143,25.7575758 L282.035714,27.6515152 L284.307143,28.030303 Z M247.585714,453.787879 L236.985714,456.439394 L234.335714,467.045455 L231.685714,456.439394 L221.464286,453.787879 L231.685714,451.136364 L234.335714,440.909091 L236.985714,451.136364 L247.585714,453.787879 Z M246.45,406.439394 L236.985714,409.090909 L234.335714,418.560606 L232.064286,409.090909 L222.6,406.439394 L232.064286,404.166667 L234.335714,394.69697 L236.985714,404.166667 L246.45,406.439394 Z M245.314286,359.090909 L236.607143,361.363636 L234.335714,370.075758 L232.442857,361.363636 L223.735714,359.090909 L232.442857,357.19697 L234.335714,348.484848 L236.607143,357.19697 L245.314286,359.090909 Z M244.178571,312.121212 L236.228571,314.015152 L234.335714,321.590909 L232.442857,314.015152 L224.871429,312.121212 L232.442857,309.848485 L234.335714,302.272727 L236.228571,309.848485 L244.178571,312.121212 Z M243.042857,264.772727 L236.228571,266.287879 L234.335714,273.106061 L232.821429,266.287879 L226.007143,264.772727 L232.821429,262.878788 L234.335714,256.060606 L236.228571,262.878788 L243.042857,264.772727 Z M241.907143,217.424242 L235.85,218.939394 L234.335714,224.621212 L232.821429,218.939394 L227.142857,217.424242 L232.821429,215.909091 L234.335714,209.848485 L235.85,215.909091 L241.907143,217.424242 Z M240.771429,170.075758 L235.85,171.212121 L234.335714,176.136364 L233.2,171.212121 L228.278571,170.075758 L233.2,168.939394 L234.335714,164.015152 L235.85,168.939394 L240.771429,170.075758 Z M239.635714,122.727273 L235.471429,123.863636 L234.335714,128.030303 L233.578571,123.863636 L229.414286,122.727273 L233.578571,121.590909 L234.335714,117.80303 L235.471429,121.590909 L239.635714,122.727273 Z M238.5,75.3787879 L235.092857,76.1363636 L234.335714,79.5454545 L233.578571,76.1363636 L230.55,75.3787879 L233.578571,74.6212121 L234.335714,71.5909091 L235.092857,74.6212121 L238.5,75.3787879 Z M237.364286,28.030303 L235.092857,28.7878788 L234.335714,31.0606061 L233.957143,28.7878788 L231.685714,28.030303 L233.957143,27.6515152 L234.335714,25.3787879 L235.092857,27.6515152 L237.364286,28.030303 Z M202.157143,453.787879 L190.042857,456.818182 L187.392857,468.560606 L184.364286,456.818182 L172.25,453.787879 L184.364286,450.757576 L187.392857,439.015152 L190.042857,450.757576 L202.157143,453.787879 Z M200.642857,406.439394 L190.042857,409.090909 L187.014286,420.075758 L184.364286,409.090909 L173.764286,406.439394 L184.364286,403.787879 L187.014286,393.181818 L190.042857,403.787879 L200.642857,406.439394 Z M199.507143,359.090909 L189.664286,361.742424 L187.014286,371.590909 L184.742857,361.742424 L174.9,359.090909 L184.742857,356.818182 L187.014286,346.969697 L189.664286,356.818182 L199.507143,359.090909 Z M197.992857,312.121212 L189.285714,314.015152 L187.014286,322.727273 L185.121429,314.015152 L176.414286,312.121212 L185.121429,309.848485 L187.014286,301.136364 L189.285714,309.848485 L197.992857,312.121212 Z M196.857143,264.772727 L189.285714,266.666667 L187.392857,274.242424 L185.121429,266.666667 L177.55,264.772727 L185.121429,262.878788 L187.392857,254.924242 L189.285714,262.878788 L196.857143,264.772727 Z M195.721429,217.424242 L188.907143,218.939394 L187.014286,225.757576 L185.5,218.939394 L178.685714,217.424242 L185.5,215.530303 L187.014286,209.090909 L188.907143,215.530303 L195.721429,217.424242 Z M194.207143,170.075758 L188.528571,171.590909 L187.392857,177.272727 L185.878571,171.590909 L180.2,170.075758 L185.878571,168.560606 L187.392857,162.878788 L188.528571,168.560606 L194.207143,170.075758 Z M193.071429,122.727273 L188.528571,123.863636 L187.392857,128.409091 L185.878571,123.863636 L181.335714,122.727273 L185.878571,121.590909 L187.392857,117.045455 L188.528571,121.590909 L193.071429,122.727273 Z M191.557143,75.3787879 L188.15,76.5151515 L187.392857,79.9242424 L186.257143,76.5151515 L182.85,75.3787879 L186.257143,74.6212121 L187.392857,70.8333333 L188.15,74.6212121 L191.557143,75.3787879 Z M190.421429,28.030303 L187.771429,28.7878788 L187.014286,31.4393939 L186.635714,28.7878788 L183.985714,28.030303 L186.635714,27.6515152 L187.014286,25 L187.771429,27.6515152 L190.421429,28.030303 Z M156.35,453.787879 L143.1,457.19697 L140.071429,470.454545 L136.664286,457.19697 L123.414286,453.787879 L136.664286,450.378788 L140.071429,437.121212 L143.1,450.378788 L156.35,453.787879 Z M155.214286,406.439394 L143.1,409.469697 L140.071429,421.590909 L137.042857,409.469697 L124.928571,406.439394 L137.042857,403.409091 L140.071429,391.287879 L143.1,403.409091 L155.214286,406.439394 Z M153.7,359.090909 L142.721429,362.121212 L140.071429,372.727273 L137.042857,362.121212 L126.442857,359.090909 L137.042857,356.439394 L140.071429,345.454545 L142.721429,356.439394 L153.7,359.090909 Z M152.185714,312.121212 L142.342857,314.393939 L140.071429,324.242424 L137.421429,314.393939 L127.578571,312.121212 L137.421429,309.469697 L140.071429,299.621212 L142.342857,309.469697 L152.185714,312.121212 Z M150.671429,264.772727 L141.964286,266.666667 L140.071429,275.378788 L137.8,266.666667 L129.092857,264.772727 L137.8,262.5 L140.071429,253.787879 L141.964286,262.5 L150.671429,264.772727 Z M149.157143,217.424242 L141.964286,219.318182 L140.071429,226.893939 L138.178571,219.318182 L130.607143,217.424242 L138.178571,215.530303 L140.071429,207.954545 L141.964286,215.530303 L149.157143,217.424242 Z M148.021429,170.075758 L141.585714,171.590909 L140.071429,178.030303 L138.178571,171.590909 L132.121429,170.075758 L138.178571,168.560606 L140.071429,162.121212 L141.585714,168.560606 L148.021429,170.075758 Z M146.507143,122.727273 L141.207143,124.242424 L140.071429,129.166667 L138.557143,124.242424 L133.635714,122.727273 L138.557143,121.590909 L140.071429,116.287879 L141.207143,121.590909 L146.507143,122.727273 Z M144.992857,75.3787879 L140.828571,76.5151515 L140.071429,80.6818182 L138.935714,76.5151515 L134.771429,75.3787879 L138.935714,74.6212121 L140.071429,70.4545455 L140.828571,74.6212121 L144.992857,75.3787879 Z M143.478571,28.030303 L140.828571,28.7878788 L140.071429,31.8181818 L139.314286,28.7878788 L136.285714,28.030303 L139.314286,27.6515152 L140.071429,24.6212121 L140.828571,27.6515152 L143.478571,28.030303 Z M110.921429,453.787879 L96.1571429,457.575758 L92.75,471.969697 L88.9642857,457.575758 L74.5785714,453.787879 L88.9642857,450 L92.75,435.606061 L96.1571429,450 L110.921429,453.787879 Z M109.407143,406.439394 L96.1571429,409.848485 L92.75,423.106061 L89.3428571,409.848485 L76.0928571,406.439394 L89.3428571,403.030303 L92.75,389.772727 L96.1571429,403.030303 L109.407143,406.439394 Z M107.892857,359.090909 L95.7785714,362.121212 L92.75,374.242424 L89.7214286,362.121212 L77.6071429,359.090909 L89.7214286,356.060606 L92.75,344.318182 L95.7785714,356.060606 L107.892857,359.090909 Z M106,312.121212 L95.4,314.772727 L92.75,325.378788 L90.1,314.772727 L79.1214286,312.121212 L90.1,309.090909 L92.75,298.484848 L95.4,309.090909 L106,312.121212 Z M104.485714,264.772727 L95.0214286,267.045455 L92.75,276.515152 L90.4785714,267.045455 L80.6357143,264.772727 L90.4785714,262.121212 L92.75,252.651515 L95.0214286,262.121212 L104.485714,264.772727 Z M102.971429,217.424242 L94.6428571,219.318182 L92.75,227.651515 L90.4785714,219.318182 L82.5285714,217.424242 L90.4785714,215.151515 L92.75,207.19697 L94.6428571,215.151515 L102.971429,217.424242 Z M101.457143,170.075758 L94.2642857,171.969697 L92.75,178.787879 L90.8571429,171.969697 L84.0428571,170.075758 L90.8571429,168.181818 L92.75,161.363636 L94.2642857,168.181818 L101.457143,170.075758 Z M99.9428571,122.727273 L94.2642857,124.242424 L92.75,129.924242 L91.2357143,124.242424 L85.5571429,122.727273 L91.2357143,121.212121 L92.75,115.530303 L94.2642857,121.212121 L99.9428571,122.727273 Z M98.05,75.3787879 L93.8857143,76.5151515 L92.75,81.0606061 L91.6142857,76.5151515 L87.0714286,75.3787879 L91.6142857,74.2424242 L92.75,70.0757576 L93.8857143,74.2424242 L98.05,75.3787879 Z M96.5357143,28.030303 L93.5071429,29.1666667 L92.75,32.1969697 L91.9928571,29.1666667 L88.5857143,28.030303 L91.9928571,27.2727273 L92.75,24.2424242 L93.5071429,27.2727273 L96.5357143,28.030303 Z M65.4928571,453.787879 L49.5928571,457.954545 L45.4285714,473.863636 L41.2642857,457.954545 L25.3642857,453.787879 L41.2642857,450 L45.4285714,433.712121 L49.5928571,450 L65.4928571,453.787879 Z M63.6,406.439394 L49.2142857,410.227273 L45.4285714,424.621212 L41.6428571,410.227273 L27.2571429,406.439394 L41.6428571,403.030303 L45.4285714,388.257576 L49.2142857,403.030303 L63.6,406.439394 Z M62.0857143,359.090909 L48.8357143,362.5 L45.4285714,375.757576 L42.0214286,362.5 L28.7714286,359.090909 L42.0214286,356.060606 L45.4285714,342.80303 L48.8357143,356.060606 L62.0857143,359.090909 Z M60.1928571,312.121212 L48.4571429,314.772727 L45.4285714,326.893939 L42.4,314.772727 L30.6642857,312.121212 L42.4,309.090909 L45.4285714,296.969697 L48.4571429,309.090909 L60.1928571,312.121212 Z M58.3,264.772727 L48.0785714,267.424242 L45.4285714,277.651515 L42.7785714,267.424242 L32.1785714,264.772727 L42.7785714,262.121212 L45.4285714,251.515152 L48.0785714,262.121212 L58.3,264.772727 Z M56.7857143,217.424242 L47.7,219.69697 L45.4285714,228.787879 L43.1571429,219.69697 L34.0714286,217.424242 L43.1571429,215.151515 L45.4285714,206.060606 L47.7,215.151515 L56.7857143,217.424242 Z M54.8928571,170.075758 L47.3214286,171.969697 L45.4285714,179.545455 L43.5357143,171.969697 L35.9642857,170.075758 L43.5357143,168.181818 L45.4285714,160.606061 L47.3214286,168.181818 L54.8928571,170.075758 Z M53.3785714,122.727273 L46.9428571,124.242424 L45.4285714,130.681818 L43.9142857,124.242424 L37.4785714,122.727273 L43.9142857,121.212121 L45.4285714,114.772727 L46.9428571,121.212121 L53.3785714,122.727273 Z M51.4857143,75.3787879 L46.5642857,76.8939394 L45.4285714,81.4393939 L44.2928571,76.8939394 L39.3714286,75.3787879 L44.2928571,74.2424242 L45.4285714,69.3181818 L46.5642857,74.2424242 L51.4857143,75.3787879 Z M49.5928571,28.030303 L46.1857143,29.1666667 L45.4285714,32.5757576 L44.6714286,29.1666667 L40.8857143,28.030303 L44.6714286,27.2727273 L45.4285714,23.8636364 L46.1857143,27.2727273 L49.5928571,28.030303 Z M452.771429,477.651515 L448.228571,478.409091 L447.092857,482.954545 L445.957143,478.409091 L441.792857,477.651515 L445.957143,476.515152 L447.092857,471.969697 L448.228571,476.515152 L452.771429,477.651515 Z M452.014286,430.30303 L448.228571,431.060606 L447.092857,435.227273 L446.335714,431.060606 L442.171429,430.30303 L446.335714,429.166667 L447.092857,425 L448.228571,429.166667 L452.014286,430.30303 Z M451.635714,382.954545 L448.228571,383.712121 L447.092857,387.5 L446.335714,383.712121 L442.55,382.954545 L446.335714,381.818182 L447.092857,378.409091 L448.228571,381.818182 L451.635714,382.954545 Z M451.257143,335.606061 L447.85,336.363636 L447.092857,339.772727 L446.335714,336.363636 L442.928571,335.606061 L446.335714,334.848485 L447.092857,331.439394 L447.85,334.848485 L451.257143,335.606061 Z M450.878571,288.257576 L447.85,289.015152 L447.092857,292.045455 L446.335714,289.015152 L443.685714,288.257576 L446.335714,287.5 L447.092857,284.848485 L447.85,287.5 L450.878571,288.257576 Z M450.5,240.909091 L447.85,241.666667 L447.092857,244.318182 L446.335714,241.666667 L444.064286,240.909091 L446.335714,240.530303 L447.092857,237.878788 L447.85,240.530303 L450.5,240.909091 Z M449.742857,193.560606 L447.85,194.318182 L447.092857,196.590909 L446.714286,194.318182 L444.442857,193.560606 L446.714286,193.181818 L447.092857,190.909091 L447.85,193.181818 L449.742857,193.560606 Z M449.364286,146.590909 L447.471429,146.969697 L447.092857,148.863636 L446.714286,146.969697 L444.821429,146.590909 L446.714286,145.833333 L447.092857,144.318182 L447.471429,145.833333 L449.364286,146.590909 Z M448.985714,99.2424242 L447.471429,99.6212121 L447.092857,101.136364 L446.714286,99.6212121 L445.2,99.2424242 L446.714286,98.8636364 L447.092857,97.3484848 L447.471429,98.8636364 L448.985714,99.2424242 Z M448.607143,51.8939394 L447.471429,52.2727273 L447.092857,53.030303 L446.714286,52.2727273 L445.957143,51.8939394 L446.714286,51.5151515 L447.092857,50.3787879 L447.471429,51.5151515 L448.607143,51.8939394 Z M448.228571,4.54545455 L447.471429,4.92424242 L447.092857,5.68181818 L447.092857,4.92424242 L445.957143,4.54545455 L447.092857,4.16666667 L447.092857,3.40909091 L447.471429,4.16666667 L448.228571,4.54545455 Z M407.342857,477.651515 L401.285714,478.787879 L399.771429,484.848485 L398.257143,478.787879 L392.578571,477.651515 L398.257143,476.136364 L399.771429,470.075758 L401.285714,476.136364 L407.342857,477.651515 Z M406.585714,430.30303 L401.285714,431.439394 L399.771429,436.742424 L398.635714,431.439394 L393.335714,430.30303 L398.635714,428.787879 L399.771429,423.484848 L401.285714,428.787879 L406.585714,430.30303 Z M405.828571,382.954545 L401.285714,384.090909 L399.771429,389.015152 L398.635714,384.090909 L393.714286,382.954545 L398.635714,381.818182 L399.771429,376.893939 L401.285714,381.818182 L405.828571,382.954545 Z M405.45,335.606061 L400.907143,336.742424 L399.771429,340.909091 L398.635714,336.742424 L394.471429,335.606061 L398.635714,334.469697 L399.771429,330.30303 L400.907143,334.469697 L405.45,335.606061 Z M404.692857,288.257576 L400.907143,289.393939 L399.771429,293.181818 L399.014286,289.393939 L395.228571,288.257576 L399.014286,287.5 L399.771429,283.333333 L400.907143,287.5 L404.692857,288.257576 Z M404.314286,240.909091 L400.907143,242.045455 L399.771429,245.075758 L399.014286,242.045455 L395.607143,240.909091 L399.014286,240.151515 L399.771429,236.742424 L400.907143,240.151515 L404.314286,240.909091 Z M403.557143,193.560606 L400.528571,194.318182 L399.771429,197.348485 L399.014286,194.318182 L396.364286,193.560606 L399.014286,193.181818 L399.771429,190.151515 L400.528571,193.181818 L403.557143,193.560606 Z M402.8,146.590909 L400.528571,146.969697 L399.771429,149.621212 L399.392857,146.969697 L396.742857,146.590909 L399.392857,145.833333 L399.771429,143.560606 L400.528571,145.833333 L402.8,146.590909 Z M402.421429,99.2424242 L400.528571,99.6212121 L399.771429,101.515152 L399.392857,99.6212121 L397.5,99.2424242 L399.392857,98.4848485 L399.771429,96.5909091 L400.528571,98.4848485 L402.421429,99.2424242 Z M401.664286,51.8939394 L400.15,52.2727273 L399.771429,53.7878788 L399.392857,52.2727273 L398.257143,51.8939394 L399.392857,51.5151515 L399.771429,50 L400.15,51.5151515 L401.664286,51.8939394 Z M401.285714,4.54545455 L400.15,4.92424242 L399.771429,6.06060606 L399.771429,4.92424242 L398.257143,4.54545455 L399.771429,4.16666667 L399.771429,3.03030303 L400.15,4.16666667 L401.285714,4.54545455 Z M361.535714,477.651515 L354.342857,479.166667 L352.45,486.363636 L350.935714,479.166667 L343.742857,477.651515 L350.935714,475.757576 L352.45,468.560606 L354.342857,475.757576 L361.535714,477.651515 Z M360.778571,430.30303 L354.342857,431.818182 L352.45,438.636364 L350.935714,431.818182 L344.121429,430.30303 L350.935714,428.409091 L352.45,421.969697 L354.342857,428.409091 L360.778571,430.30303 Z M360.021429,382.954545 L353.964286,384.469697 L352.45,390.530303 L350.935714,384.469697 L344.878571,382.954545 L350.935714,381.439394 L352.45,375.378788 L353.964286,381.439394 L360.021429,382.954545 Z M359.264286,335.606061 L353.964286,337.121212 L352.45,342.424242 L351.314286,337.121212 L345.635714,335.606061 L351.314286,334.090909 L352.45,328.787879 L353.964286,334.090909 L359.264286,335.606061 Z M358.507143,288.257576 L353.964286,289.393939 L352.45,294.318182 L351.314286,289.393939 L346.392857,288.257576 L351.314286,287.121212 L352.45,282.19697 L353.964286,287.121212 L358.507143,288.257576 Z M357.75,240.909091 L353.585714,242.045455 L352.45,246.212121 L351.692857,242.045455 L347.15,240.909091 L351.692857,239.772727 L352.45,235.606061 L353.585714,239.772727 L357.75,240.909091 Z M356.992857,193.560606 L353.585714,194.69697 L352.45,198.106061 L351.692857,194.69697 L347.907143,193.560606 L351.692857,192.80303 L352.45,189.015152 L353.585714,192.80303 L356.992857,193.560606 Z M356.235714,146.590909 L353.207143,147.348485 L352.45,150.378788 L351.692857,147.348485 L348.664286,146.590909 L351.692857,145.833333 L352.45,142.80303 L353.207143,145.833333 L356.235714,146.590909 Z M355.478571,99.2424242 L353.207143,99.6212121 L352.45,102.272727 L352.071429,99.6212121 L349.421429,99.2424242 L352.071429,98.4848485 L352.45,96.2121212 L353.207143,98.4848485 L355.478571,99.2424242 Z M354.721429,51.8939394 L353.207143,52.2727273 L352.45,54.1666667 L352.071429,52.2727273 L350.178571,51.8939394 L352.071429,51.5151515 L352.45,49.6212121 L353.207143,51.5151515 L354.721429,51.8939394 Z M354.342857,4.54545455 L352.828571,4.92424242 L352.45,6.43939394 L352.071429,4.92424242 L350.557143,4.54545455 L352.071429,4.16666667 L352.45,2.65151515 L352.828571,4.16666667 L354.342857,4.54545455 Z M316.107143,477.651515 L307.4,479.545455 L305.507143,488.257576 L303.235714,479.545455 L294.528571,477.651515 L303.235714,475.378788 L305.507143,466.666667 L307.4,475.378788 L316.107143,477.651515 Z M315.35,430.30303 L307.4,432.19697 L305.507143,440.151515 L303.235714,432.19697 L295.285714,430.30303 L303.235714,428.030303 L305.507143,420.075758 L307.4,428.030303 L315.35,430.30303 Z M314.592857,382.954545 L307.021429,384.848485 L305.507143,392.045455 L303.614286,384.848485 L296.421429,382.954545 L303.614286,381.060606 L305.507143,373.863636 L307.021429,381.060606 L314.592857,382.954545 Z M313.457143,335.606061 L307.021429,337.121212 L305.507143,343.939394 L303.614286,337.121212 L297.178571,335.606061 L303.614286,334.090909 L305.507143,327.272727 L307.021429,334.090909 L313.457143,335.606061 Z M312.7,288.257576 L306.642857,289.772727 L305.507143,295.454545 L303.992857,289.772727 L297.935714,288.257576 L303.992857,286.742424 L305.507143,281.060606 L306.642857,286.742424 L312.7,288.257576 Z M311.564286,240.909091 L306.642857,242.424242 L305.507143,247.348485 L303.992857,242.424242 L299.071429,240.909091 L303.992857,239.772727 L305.507143,234.469697 L306.642857,239.772727 L311.564286,240.909091 Z M310.807143,193.560606 L306.264286,194.69697 L305.507143,199.242424 L304.371429,194.69697 L299.828571,193.560606 L304.371429,192.80303 L305.507143,188.257576 L306.264286,192.80303 L310.807143,193.560606 Z M310.05,146.590909 L306.264286,147.348485 L305.507143,151.136364 L304.371429,147.348485 L300.964286,146.590909 L304.371429,145.454545 L305.507143,142.045455 L306.264286,145.454545 L310.05,146.590909 Z M308.914286,99.2424242 L306.264286,100 L305.507143,102.651515 L304.75,100 L301.721429,99.2424242 L304.75,98.4848485 L305.507143,95.4545455 L306.264286,98.4848485 L308.914286,99.2424242 Z M308.157143,51.8939394 L305.885714,52.2727273 L305.507143,54.5454545 L304.75,52.2727273 L302.478571,51.8939394 L304.75,51.1363636 L305.507143,49.2424242 L305.885714,51.1363636 L308.157143,51.8939394 Z M307.778571,4.54545455 L305.885714,4.92424242 L305.507143,6.81818182 L304.75,4.92424242 L303.235714,4.54545455 L304.75,4.16666667 L305.507143,2.27272727 L305.885714,4.16666667 L307.778571,4.54545455 Z M270.678571,477.651515 L260.457143,479.924242 L258.185714,490.151515 L255.535714,479.924242 L245.314286,477.651515 L255.535714,475 L258.185714,464.772727 L260.457143,475 L270.678571,477.651515 Z M269.921429,430.30303 L260.457143,432.575758 L258.185714,441.666667 L255.914286,432.575758 L246.45,430.30303 L255.914286,428.030303 L258.185714,418.560606 L260.457143,428.030303 L269.921429,430.30303 Z M268.785714,382.954545 L260.078571,384.848485 L258.185714,393.560606 L255.914286,384.848485 L247.585714,382.954545 L255.914286,380.681818 L258.185714,372.348485 L260.078571,380.681818 L268.785714,382.954545 Z M267.65,335.606061 L260.078571,337.5 L258.185714,345.075758 L256.292857,337.5 L248.721429,335.606061 L256.292857,333.712121 L258.185714,326.136364 L260.078571,333.712121 L267.65,335.606061 Z M266.514286,288.257576 L259.7,290.151515 L258.185714,296.590909 L256.292857,290.151515 L249.478571,288.257576 L256.292857,286.742424 L258.185714,279.924242 L259.7,286.742424 L266.514286,288.257576 Z M265.378571,240.909091 L259.7,242.424242 L258.185714,248.484848 L256.671429,242.424242 L250.614286,240.909091 L256.671429,239.393939 L258.185714,233.712121 L259.7,239.393939 L265.378571,240.909091 Z M264.621429,193.560606 L259.321429,195.075758 L258.185714,200 L256.671429,195.075758 L251.75,193.560606 L256.671429,192.424242 L258.185714,187.5 L259.321429,192.424242 L264.621429,193.560606 Z M263.485714,146.590909 L259.321429,147.348485 L258.185714,151.893939 L257.05,147.348485 L252.885714,146.590909 L257.05,145.454545 L258.185714,141.287879 L259.321429,145.454545 L263.485714,146.590909 Z M262.35,99.2424242 L258.942857,100 L258.185714,103.409091 L257.428571,100 L254.021429,99.2424242 L257.428571,98.1060606 L258.185714,95.0757576 L258.942857,98.1060606 L262.35,99.2424242 Z M261.214286,51.8939394 L258.564286,52.6515152 L258.185714,54.9242424 L257.428571,52.6515152 L254.778571,51.8939394 L257.428571,51.1363636 L258.185714,48.4848485 L258.564286,51.1363636 L261.214286,51.8939394 Z M260.835714,4.54545455 L258.564286,4.92424242 L258.185714,7.1969697 L257.428571,4.92424242 L255.535714,4.54545455 L257.428571,4.16666667 L258.185714,1.89393939 L258.564286,4.16666667 L260.835714,4.54545455 Z M225.25,477.651515 L213.892857,480.30303 L210.864286,492.045455 L207.835714,480.30303 L196.478571,477.651515 L207.835714,474.621212 L210.864286,462.878788 L213.892857,474.621212 L225.25,477.651515 Z M224.114286,430.30303 L213.514286,432.954545 L210.864286,443.560606 L208.214286,432.954545 L197.614286,430.30303 L208.214286,427.651515 L210.864286,417.045455 L213.514286,427.651515 L224.114286,430.30303 Z M222.978571,382.954545 L213.135714,385.227273 L210.864286,395.075758 L208.592857,385.227273 L198.75,382.954545 L208.592857,380.30303 L210.864286,370.833333 L213.135714,380.30303 L222.978571,382.954545 Z M221.842857,335.606061 L213.135714,337.878788 L210.864286,346.590909 L208.592857,337.878788 L199.885714,335.606061 L208.592857,333.333333 L210.864286,324.621212 L213.135714,333.333333 L221.842857,335.606061 Z M220.328571,288.257576 L212.757143,290.151515 L210.864286,298.106061 L208.971429,290.151515 L201.021429,288.257576 L208.971429,286.363636 L210.864286,278.787879 L212.757143,286.363636 L220.328571,288.257576 Z M219.192857,240.909091 L212.378571,242.80303 L210.864286,249.621212 L208.971429,242.80303 L202.535714,240.909091 L208.971429,239.393939 L210.864286,232.575758 L212.378571,239.393939 L219.192857,240.909091 Z M218.057143,193.560606 L212.378571,195.075758 L210.864286,201.136364 L209.35,195.075758 L203.671429,193.560606 L209.35,192.424242 L210.864286,186.363636 L212.378571,192.424242 L218.057143,193.560606 Z M216.921429,146.590909 L212,147.727273 L210.864286,152.651515 L209.728571,147.727273 L204.807143,146.590909 L209.728571,145.075758 L210.864286,140.530303 L212,145.075758 L216.921429,146.590909 Z M215.785714,99.2424242 L211.621429,100 L210.864286,103.787879 L209.728571,100 L205.942857,99.2424242 L209.728571,98.1060606 L210.864286,94.3181818 L211.621429,98.1060606 L215.785714,99.2424242 Z M214.65,51.8939394 L211.621429,52.6515152 L210.864286,55.3030303 L210.107143,52.6515152 L207.078571,51.8939394 L210.107143,51.1363636 L210.864286,48.1060606 L211.621429,51.1363636 L214.65,51.8939394 Z M213.892857,4.54545455 L211.621429,5.3030303 L210.864286,7.57575758 L210.107143,5.3030303 L207.835714,4.54545455 L210.107143,3.78787879 L210.864286,1.51515152 L211.621429,3.78787879 L213.892857,4.54545455 Z M179.821429,477.651515 L166.95,480.681818 L163.542857,493.939394 L160.135714,480.681818 L147.264286,477.651515 L160.135714,474.242424 L163.542857,460.984848 L166.95,474.242424 L179.821429,477.651515 Z M178.685714,430.30303 L166.571429,433.333333 L163.542857,445.075758 L160.514286,433.333333 L148.778571,430.30303 L160.514286,427.272727 L163.542857,415.151515 L166.571429,427.272727 L178.685714,430.30303 Z M177.171429,382.954545 L166.192857,385.606061 L163.542857,396.590909 L160.892857,385.606061 L149.914286,382.954545 L160.892857,380.30303 L163.542857,369.318182 L166.192857,380.30303 L177.171429,382.954545 Z M175.657143,335.606061 L166.192857,337.878788 L163.542857,347.727273 L161.271429,337.878788 L151.428571,335.606061 L161.271429,332.954545 L163.542857,323.484848 L166.192857,332.954545 L175.657143,335.606061 Z M174.521429,288.257576 L165.814286,290.530303 L163.542857,299.242424 L161.271429,290.530303 L152.564286,288.257576 L161.271429,285.984848 L163.542857,277.272727 L165.814286,285.984848 L174.521429,288.257576 Z M173.007143,240.909091 L165.435714,242.80303 L163.542857,250.378788 L161.65,242.80303 L154.078571,240.909091 L161.65,239.015152 L163.542857,231.439394 L165.435714,239.015152 L173.007143,240.909091 Z M171.871429,193.560606 L165.057143,195.454545 L163.542857,201.893939 L162.028571,195.454545 L155.592857,193.560606 L162.028571,192.045455 L163.542857,185.606061 L165.057143,192.045455 L171.871429,193.560606 Z M170.357143,146.590909 L165.057143,147.727273 L163.542857,153.409091 L162.028571,147.727273 L156.728571,146.590909 L162.028571,145.075758 L163.542857,139.772727 L165.057143,145.075758 L170.357143,146.590909 Z M168.842857,99.2424242 L164.678571,100.378788 L163.542857,104.545455 L162.407143,100.378788 L158.242857,99.2424242 L162.407143,98.1060606 L163.542857,93.5606061 L164.678571,98.1060606 L168.842857,99.2424242 Z M167.707143,51.8939394 L164.3,52.6515152 L163.542857,56.0606061 L162.785714,52.6515152 L159.378571,51.8939394 L162.785714,51.1363636 L163.542857,47.7272727 L164.3,51.1363636 L167.707143,51.8939394 Z M166.95,4.54545455 L164.3,5.3030303 L163.542857,7.95454545 L162.785714,5.3030303 L160.135714,4.54545455 L162.785714,3.78787879 L163.542857,1.13636364 L164.3,3.78787879 L166.95,4.54545455 Z M134.392857,477.651515 L120.007143,481.060606 L116.221429,495.454545 L112.814286,481.060606 L98.05,477.651515 L112.814286,473.863636 L116.221429,459.469697 L120.007143,473.863636 L134.392857,477.651515 Z M132.878571,430.30303 L119.628571,433.333333 L116.221429,446.969697 L112.814286,433.333333 L99.5642857,430.30303 L112.814286,426.893939 L116.221429,413.636364 L119.628571,426.893939 L132.878571,430.30303 Z M131.364286,382.954545 L119.25,385.984848 L116.221429,398.106061 L113.192857,385.984848 L101.078571,382.954545 L113.192857,379.924242 L116.221429,367.80303 L119.25,379.924242 L131.364286,382.954545 Z M129.85,335.606061 L118.871429,338.257576 L116.221429,349.242424 L113.571429,338.257576 L102.592857,335.606061 L113.571429,332.954545 L116.221429,321.969697 L118.871429,332.954545 L129.85,335.606061 Z M128.335714,288.257576 L118.871429,290.909091 L116.221429,300.378788 L113.95,290.909091 L104.107143,288.257576 L113.95,285.984848 L116.221429,276.136364 L118.871429,285.984848 L128.335714,288.257576 Z M126.821429,240.909091 L118.492857,243.181818 L116.221429,251.515152 L114.328571,243.181818 L105.621429,240.909091 L114.328571,239.015152 L116.221429,230.30303 L118.492857,239.015152 L126.821429,240.909091 Z M125.307143,193.560606 L118.114286,195.454545 L116.221429,202.651515 L114.328571,195.454545 L107.135714,193.560606 L114.328571,192.045455 L116.221429,184.469697 L118.114286,192.045455 L125.307143,193.560606 Z M123.792857,146.590909 L117.735714,148.106061 L116.221429,154.166667 L114.707143,148.106061 L108.65,146.590909 L114.707143,145.075758 L116.221429,139.015152 L117.735714,145.075758 L123.792857,146.590909 Z M122.278571,99.2424242 L117.357143,100.378788 L116.221429,105.30303 L115.085714,100.378788 L110.164286,99.2424242 L115.085714,98.1060606 L116.221429,93.1818182 L117.357143,98.1060606 L122.278571,99.2424242 Z M120.764286,51.8939394 L117.357143,52.6515152 L116.221429,56.4393939 L115.464286,52.6515152 L111.678571,51.8939394 L115.464286,50.7575758 L116.221429,47.3484848 L117.357143,50.7575758 L120.764286,51.8939394 Z M120.007143,4.54545455 L116.978571,5.3030303 L116.221429,8.33333333 L115.464286,5.3030303 L112.435714,4.54545455 L115.464286,3.78787879 L116.221429,0.757575758 L116.978571,3.78787879 L120.007143,4.54545455 Z M88.9642857,477.651515 L73.0642857,481.439394 L68.9,497.348485 L65.1142857,481.439394 L49.2142857,477.651515 L65.1142857,473.484848 L68.9,457.575758 L73.0642857,473.484848 L88.9642857,477.651515 Z M87.45,430.30303 L72.6857143,433.712121 L68.9,448.484848 L65.4928571,433.712121 L50.7285714,430.30303 L65.4928571,426.515152 L68.9,411.742424 L72.6857143,426.515152 L87.45,430.30303 Z M85.5571429,382.954545 L72.3071429,386.363636 L68.9,399.621212 L65.8714286,386.363636 L52.2428571,382.954545 L65.8714286,379.545455 L68.9,366.287879 L72.3071429,379.545455 L85.5571429,382.954545 Z M84.0428571,335.606061 L71.9285714,338.636364 L68.9,350.757576 L65.8714286,338.636364 L54.1357143,335.606061 L65.8714286,332.575758 L68.9,320.454545 L71.9285714,332.575758 L84.0428571,335.606061 Z M82.5285714,288.257576 L71.55,290.909091 L68.9,301.515152 L66.25,290.909091 L55.65,288.257576 L66.25,285.606061 L68.9,275 L71.55,285.606061 L82.5285714,288.257576 Z M80.6357143,240.909091 L71.55,243.181818 L68.9,252.651515 L66.6285714,243.181818 L57.5428571,240.909091 L66.6285714,238.636364 L68.9,229.545455 L71.55,238.636364 L80.6357143,240.909091 Z M79.1214286,193.560606 L71.1714286,195.833333 L68.9,203.787879 L67.0071429,195.833333 L59.0571429,193.560606 L67.0071429,191.666667 L68.9,183.712121 L71.1714286,191.666667 L79.1214286,193.560606 Z M77.2285714,146.590909 L70.7928571,148.106061 L68.9,154.924242 L67.3857143,148.106061 L60.5714286,146.590909 L67.3857143,144.69697 L68.9,138.257576 L70.7928571,144.69697 L77.2285714,146.590909 Z M75.7142857,99.2424242 L70.4142857,100.378788 L68.9,105.681818 L67.7642857,100.378788 L62.4642857,99.2424242 L67.7642857,97.7272727 L68.9,92.4242424 L70.4142857,97.7272727 L75.7142857,99.2424242 Z M74.2,51.8939394 L70.0357143,53.030303 L68.9,56.8181818 L68.1428571,53.030303 L63.9785714,51.8939394 L68.1428571,50.7575758 L68.9,46.969697 L70.0357143,50.7575758 L74.2,51.8939394 Z M73.0642857,4.54545455 L70.0357143,5.3030303 L68.9,8.71212121 L68.1428571,5.3030303 L64.7357143,4.54545455 L68.1428571,3.78787879 L68.9,0.378787879 L70.0357143,3.78787879 L73.0642857,4.54545455 Z M43.5357143,477.651515 L26.1214286,481.818182 L21.9571429,499.242424 L17.4142857,481.818182 L9.9475983e-14,477.651515 L17.4142857,473.106061 L21.9571429,455.681818 L26.1214286,473.106061 L43.5357143,477.651515 Z M41.6428571,430.30303 L25.7428571,434.090909 L21.9571429,450 L17.7928571,434.090909 L1.89285714,430.30303 L17.7928571,426.136364 L21.9571429,410.227273 L25.7428571,426.136364 L41.6428571,430.30303 Z M39.75,382.954545 L25.3642857,386.363636 L21.9571429,401.136364 L18.1714286,386.363636 L3.78571429,382.954545 L18.1714286,379.166667 L21.9571429,364.772727 L25.3642857,379.166667 L39.75,382.954545 Z M38.2357143,335.606061 L24.9857143,339.015152 L21.9571429,351.893939 L18.55,339.015152 L5.3,335.606061 L18.55,332.19697 L21.9571429,319.318182 L24.9857143,332.19697 L38.2357143,335.606061 Z M36.3428571,288.257576 L24.6071429,291.287879 L21.9571429,302.651515 L18.9285714,291.287879 L7.19285714,288.257576 L18.9285714,285.227273 L21.9571429,273.863636 L24.6071429,285.227273 L36.3428571,288.257576 Z M34.45,240.909091 L24.2285714,243.560606 L21.9571429,253.787879 L19.3071429,243.560606 L9.08571429,240.909091 L19.3071429,238.636364 L21.9571429,228.409091 L24.2285714,238.636364 L34.45,240.909091 Z M32.5571429,193.560606 L23.85,195.833333 L21.9571429,204.545455 L19.6857143,195.833333 L10.9785714,193.560606 L19.6857143,191.666667 L21.9571429,182.954545 L23.85,191.666667 L32.5571429,193.560606 Z M31.0428571,146.590909 L23.4714286,148.106061 L21.9571429,155.681818 L20.0642857,148.106061 L12.8714286,146.590909 L20.0642857,144.69697 L21.9571429,137.5 L23.4714286,144.69697 L31.0428571,146.590909 Z M29.15,99.2424242 L23.0928571,100.757576 L21.9571429,106.439394 L20.4428571,100.757576 L14.3857143,99.2424242 L20.4428571,97.7272727 L21.9571429,92.0454545 L23.0928571,97.7272727 L29.15,99.2424242 Z M27.2571429,51.8939394 L22.7142857,53.030303 L21.9571429,57.1969697 L20.8214286,53.030303 L16.2785714,51.8939394 L20.8214286,50.7575758 L21.9571429,46.2121212 L22.7142857,50.7575758 L27.2571429,51.8939394 Z M26.5,4.54545455 L22.7142857,5.3030303 L21.9571429,9.09090909 L20.8214286,5.3030303 L17.4142857,4.54545455 L20.8214286,3.78787879 L21.9571429,4.26325641e-14 L22.7142857,3.78787879 L26.5,4.54545455 Z" id="Combined-Shape" transform="translate(237.553571, 249.621212) scale(1, -1) translate(-237.553571, -249.621212) "></path>
            </g>
        </g>
    </g>
</svg>